<?xml version="1.0" standalone="no"?>
<svg xmlns="http://www.w3.org/2000/svg" viewBox="0 0 70.08 56.561" width="70.08" height="56.561"><rect fill="#192067" width="70.08" height="56.561" x="0" y="0"></rect><path fill="white" fill-rule="nonzero" d="M10.44 15.72L10.44 15.72Q13.44 12.44 15.82 8.76Q18.20 5.08 20.24 0.48L20.24 0.48Q21.28 0.60 22.24 1.04Q23.20 1.48 23.76 2.04L23.76 2.04Q21.56 4.68 19.78 6.84Q18 9 16.52 10.90Q15.04 12.80 13.78 14.54Q12.52 16.28 11.32 18.04L11.32 18.04Q10.72 20.08 10.20 22.16Q9.68 24.24 9.28 26.14Q8.88 28.04 8.66 29.66Q8.44 31.28 8.44 32.44L8.44 32.44Q8 32.44 7.04 32.26Q6.08 32.08 5.08 31.84Q4.08 31.60 3.26 31.36Q2.44 31.12 2.28 30.96L2.28 30.96Q2.92 29.88 3.54 28.30Q4.16 26.72 4.76 24.98Q5.36 23.24 5.92 21.46Q6.48 19.68 6.96 18.16L6.96 18.16Q5.96 15.04 5.02 12.30Q4.08 9.56 3.20 7.34Q2.32 5.12 1.52 3.52Q0.72 1.92 0 1.08L0 1.08Q0.40 0.92 1.22 0.76Q2.04 0.60 3.02 0.44Q4 0.28 5.02 0.18Q6.04 0.08 6.84 0.04L6.84 0.04Q6.84 1.04 7.02 2.48Q7.20 3.92 7.50 5.56Q7.80 7.20 8.20 8.88Q8.60 10.56 9 11.96Q9.40 13.36 9.78 14.38Q10.16 15.40 10.44 15.72ZM45.84 2.56L45.84 2.56Q45.96 3.24 46.02 3.50Q46.08 3.76 46.08 4.20L46.08 4.20Q46.08 5.52 45.50 6.66Q44.92 7.80 43.92 8.28L43.92 8.28Q43.12 7.20 41.96 6.42Q40.80 5.64 39.42 5.14Q38.04 4.64 36.56 4.40Q35.08 4.16 33.68 4.16L33.68 4.16Q32.28 4.16 31.06 4.38Q29.84 4.60 28.90 4.98Q27.96 5.36 27.42 5.92Q26.88 6.48 26.88 7.20L26.88 7.20Q27 8.08 27.96 8.98Q28.92 9.88 30.32 10.74Q31.72 11.60 33.42 12.44Q35.12 13.28 36.76 14.04L36.76 14.04Q38.80 15 40.28 15.82Q41.76 16.64 42.72 17.62Q43.68 18.60 44.16 19.84Q44.64 21.08 44.64 22.84L44.64 22.84Q44.64 24.88 43.96 26.66Q43.28 28.44 41.98 29.76Q40.68 31.08 38.84 31.82Q37 32.56 34.72 32.56L34.72 32.56Q32.48 32.56 29.88 31.88Q27.28 31.20 25.02 30.02Q22.76 28.84 21.26 27.30Q19.76 25.76 19.76 24.04L19.76 24.04Q19.76 23.24 20.22 22Q20.68 20.76 21.88 19.40L21.88 19.40Q22 20.60 23.18 22.24Q24.36 23.88 26.72 25.28L26.72 25.28Q28.92 26.56 31.26 27.14Q33.60 27.72 35.64 27.72L35.64 27.72Q37.88 27.72 39.28 27.16Q40.68 26.60 41.48 25.82Q42.28 25.04 42.60 24.24Q42.92 23.44 42.96 22.96L42.96 22.96Q42.92 22.16 42.22 21.42Q41.52 20.68 40.34 19.98Q39.16 19.28 37.60 18.56Q36.04 17.84 34.36 17.12L34.36 17.12Q31.84 16 30.02 15.02Q28.20 14.04 27.02 13.02Q25.84 12 25.30 10.88Q24.76 9.76 24.76 8.32L24.76 8.32Q24.76 6.08 26.12 4.08Q27.48 2.08 30.04 1.04L30.04 1.04Q31.32 0.48 32.78 0.24Q34.24 0 35.64 0L35.64 0Q38.28 0 40.80 0.72Q43.32 1.44 45.84 2.56Z" transform="translate(12 12) scale(1)"></path></svg>